<svg width="20" height="20" viewBox="0 0 20 20" fill="none" xmlns="http://www.w3.org/2000/svg">
<g clip-path="url(#clip0_4_48)">
<path d="M19.6017 10.2401C19.6017 9.56471 19.5363 8.86756 19.4274 8.21399H9.99414V12.0701H15.397C15.1792 13.3119 14.4602 14.4012 13.3927 15.0983L16.617 17.6037C18.5124 15.839 19.6017 13.2683 19.6017 10.2401Z" fill="#4280EF"/>
<path d="M9.99421 20.0001C12.6957 20.0001 14.9614 19.1069 16.6171 17.5819L13.3928 15.0983C12.4996 15.7083 11.3449 16.0569 9.99421 16.0569C7.37991 16.0569 5.17954 14.2922 4.37346 11.9393L1.06201 14.4883C2.76131 17.8651 6.20347 20.0001 9.99421 20.0001Z" fill="#34A353"/>
<path d="M4.37351 11.9171C3.95958 10.6753 3.95958 9.32462 4.37351 8.08282L1.06206 5.51208C-0.35402 8.34424 -0.35402 11.6775 1.06206 14.4879L4.37351 11.9171Z" fill="#F6B704"/>
<path d="M9.99421 3.9654C11.4103 3.94362 12.8046 4.48826 13.8285 5.46863L16.6825 2.5929C14.8742 0.8936 12.4778 -0.0214056 9.99421 0.000380225C6.20347 0.000380225 2.76131 2.13539 1.06201 5.5122L4.37346 8.08293C5.17954 5.70827 7.37991 3.9654 9.99421 3.9654Z" fill="#E54335"/>
</g>
<defs>
<clipPath id="clip0_4_48">
<rect width="20" height="20" fill="white"/>
</clipPath>
</defs>
</svg>
