<svg width="48" height="48" viewBox="0 0 48 48" fill="none" xmlns="http://www.w3.org/2000/svg">
<rect width="48" height="48" fill="white"/>
<rect x="32" y="22" width="12" height="4" rx="2" fill="black"/>
<rect x="24" y="21.4853" width="12" height="4" rx="2" transform="rotate(-45 24 21.4853)" fill="black"/>
<rect x="26.8284" y="24" width="12" height="4" rx="2" transform="rotate(45 26.8284 24)" fill="black"/>
<rect x="13" y="32.4853" width="12" height="4" rx="2" transform="rotate(-45 13 32.4853)" fill="black"/>
<rect x="15.8284" y="13" width="12" height="4" rx="2" transform="rotate(45 15.8284 13)" fill="black"/>
<rect x="22" y="44" width="12" height="4" rx="2" transform="rotate(-90 22 44)" fill="black"/>
<rect x="22" y="16" width="12" height="4" rx="2" transform="rotate(-90 22 16)" fill="black"/>
<rect x="4" y="22" width="12" height="4" rx="2" fill="black"/>
</svg>
